<svg width="140" height="140" viewBox="0 0 140 140" fill="none" xmlns="http://www.w3.org/2000/svg">
<g id="barbiLogo">
<path id="circleLogo" d="M69.6 139.2C108.039 139.2 139.2 108.039 139.2 69.6C139.2 31.161 108.039 0 69.6 0C31.161 0 0 31.161 0 69.6C0 108.039 31.161 139.2 69.6 139.2Z" fill="#E70788"/>
<g id="bcircleLogo">
<path id="bLogo" d="M45 33.1H74.1C77.8 33.1 81.2 33.5 84.3 34.4C87.4 35.3 90 36.5 92.2 38.2C94.4 39.9 96.1 42 97.3 44.4C98.5 46.9 99.1 49.8 99.1 53.2C99.1 55.6 98.8 57.6 98.2 59.3C97.6 61 97 62.4 96.3 63.5C95.5 64.8 94.6 66 93.5 66.8C95.1 67.8 96.6 69.2 98 70.8C99.1 72.2 100.1 74 101.1 76.2C102 78.4 102.5 81 102.5 84.1C102.5 87.7 101.9 90.9 100.6 93.8C99.3 96.7 97.5 99.2 95.2 101.2C92.9 103.2 90 104.8 86.6 105.9C83.2 107 79.4 107.5 75.3 107.5H45V33.1V33.1ZM72.2 98.6C78.7 98.6 83.6 97.2 86.7 94.4C89.8 91.6 91.4 87.8 91.4 83.1C91.4 80.1 90.7 77.6 89.4 75.8C88.1 74 86.7 72.5 85.2 71.5C83.3 70.3 81.3 69.5 79.1 69C80.9 68.5 82.5 67.7 83.9 66.5C85.2 65.5 86.3 64.2 87.3 62.5C88.3 60.8 88.8 58.7 88.8 56.1C88.8 51.4 87.3 47.9 84.3 45.5C81.3 43.1 77.3 41.9 72.1 41.9H56V98.4H72.2V98.6Z" fill="white" stroke="white" stroke-width="3.729" stroke-miterlimit="10" stroke-linecap="round" stroke-linejoin="round"/>
</g>
<path id="lunaLogo" d="M43.3 65C47.9392 65 51.7 61.2392 51.7 56.6C51.7 51.9608 47.9392 48.2 43.3 48.2C38.6608 48.2 34.9 51.9608 34.9 56.6C34.9 61.2392 38.6608 65 43.3 65Z" fill="#E70788" stroke="white" stroke-width="1.2562" stroke-miterlimit="10"/>
</g>
</svg>
