<svg width="842" height="1191" viewBox="0 0 842 1191" fill="none" xmlns="http://www.w3.org/2000/svg">
<g id="logos 1">
<g id="barbiLogo">
<path id="circleLogo" d="M362.6 698.2C401.039 698.2 432.2 667.039 432.2 628.6C432.2 590.161 401.039 559 362.6 559C324.161 559 293 590.161 293 628.6C293 667.039 324.161 698.2 362.6 698.2Z" fill="#E70788"/>
<g id="bcircleLogo">
<path id="bLogo" d="M338 592.1H367.1C370.8 592.1 374.2 592.5 377.3 593.4C380.4 594.3 383 595.5 385.2 597.2C387.4 598.9 389.1 601 390.3 603.4C391.5 605.9 392.1 608.8 392.1 612.2C392.1 614.6 391.8 616.6 391.2 618.3C390.6 620 390 621.4 389.3 622.5C388.5 623.8 387.6 625 386.5 625.8C388.1 626.8 389.6 628.2 391 629.8C392.1 631.2 393.1 633 394.1 635.2C395 637.4 395.5 640 395.5 643.1C395.5 646.7 394.9 649.9 393.6 652.8C392.3 655.7 390.5 658.2 388.2 660.2C385.9 662.2 383 663.8 379.6 664.9C376.2 666 372.4 666.5 368.3 666.5H338V592.1V592.1ZM365.2 657.6C371.7 657.6 376.6 656.2 379.7 653.4C382.8 650.6 384.4 646.8 384.4 642.1C384.4 639.1 383.7 636.6 382.4 634.8C381.1 633 379.7 631.5 378.2 630.5C376.3 629.3 374.3 628.5 372.1 628C373.9 627.5 375.5 626.7 376.9 625.5C378.2 624.5 379.3 623.2 380.3 621.5C381.3 619.8 381.8 617.7 381.8 615.1C381.8 610.4 380.3 606.9 377.3 604.5C374.3 602.1 370.3 600.9 365.1 600.9H349V657.4H365.2V657.6Z" fill="white" stroke="white" stroke-width="3.729" stroke-miterlimit="10" stroke-linecap="round" stroke-linejoin="round"/>
</g>
<path id="lunaLogo" d="M336.3 624C340.939 624 344.7 620.239 344.7 615.6C344.7 610.961 340.939 607.2 336.3 607.2C331.661 607.2 327.9 610.961 327.9 615.6C327.9 620.239 331.661 624 336.3 624Z" fill="#E70788" stroke="white" stroke-width="1.2562" stroke-miterlimit="10"/>
</g>
</g>
</svg>
